{
    "asset": {
        "version": "2.0",
        "generator": "Open Asset Import Library (assimp v5.2.cf7d3637)"
    },
    "extensionsUsed": [
        "KHR_materials_volume",
        "KHR_materials_ior",
        "FB_ngon_encoding"
    ],
    "accessors": [
        {
            "bufferView": 0,
            "byteOffset": 0,
            "componentType": 5126,
            "count": 50604,
            "type": "VEC3",
            "max": [
                0.5805574059486389,
                0.670066773891449,
                0.8479364514350891
            ],
            "min": [
                -0.5872814655303955,
                -0.6615706086158752,
                -0.8687246441841126
            ]
        },
        {
            "bufferView": 1,
            "byteOffset": 0,
            "componentType": 5126,
            "count": 50604,
            "type": "VEC3",
            "max": [
                0.9998053312301636,
                0.999471127986908,
                0.9999735355377197
            ],
            "min": [
                -0.9999995231628418,
                -0.9999484419822693,
                -0.9997114539146423
            ]
        },
        {
            "bufferView": 2,
            "byteOffset": 0,
            "componentType": 5126,
            "count": 50604,
            "type": "VEC2",
            "max": [
                0.9942305684089661,
                0.9988663792610169
            ],
            "min": [
                0.0011336355237290264,
                0.001133739948272705
            ]
        },
        {
            "bufferView": 3,
            "byteOffset": 0,
            "componentType": 5125,
            "count": 50604,
            "type": "SCALAR",
            "max": [
                50603
            ],
            "min": [
                0
            ]
        }
    ],
    "buffers": [
        {
            "byteLength": 1821744,
            "uri": "result.bin"
        }
    ],
    "bufferViews": [
        {
            "buffer": 0,
            "byteOffset": 0,
            "byteLength": 607248,
            "target": 34962
        },
        {
            "buffer": 0,
            "byteOffset": 607248,
            "byteLength": 607248,
            "target": 34962
        },
        {
            "buffer": 0,
            "byteOffset": 1214496,
            "byteLength": 404832,
            "target": 34962
        },
        {
            "buffer": 0,
            "byteOffset": 1619328,
            "byteLength": 202416,
            "target": 34963
        }
    ],
    "images": [
        {
            "name": "rgb",
            "uri": "data:image/jpeg;base64,"
        },
        {
            "name": "Normals",
            "uri": "data:image/jpeg;base64,"
        }
    ],
    "materials": [
        {
            "name": "base_material",
            "pbrMetallicRoughness": {
                "baseColorTexture": {
                    "index": 0
                },
                "metallicFactor": 0.0
            },
            "normalTexture": {
                "index": 1
            },
            "doubleSided": true,
            "extensions": {
                "KHR_materials_ior": {
                    "ior": 1.4500000476837159
                }
            }
        },
        {
            "name": "material"
        }
    ],
    "meshes": [
        {
            "name": "mesh",
            "primitives": [
                {
                    "mode": 4,
                    "material": 0,
                    "indices": 3,
                    "attributes": {
                        "POSITION": 0,
                        "NORMAL": 1,
                        "TEXCOORD_0": 2
                    }
                }
            ]
        }
    ],
    "nodes": [
        {
            "name": "mesh",
            "matrix": [
                0.5818303823471069,
                0.0,
                0.0,
                0.0,
                0.0,
                -6.935958651865804e-8,
                0.5818304419517517,
                0.0,
                0.0,
                -0.5818304419517517,
                -6.935958651865804e-8,
                0.0,
                0.0,
                0.0,
                0.0,
                1.0
            ],
            "mesh": 0
        }
    ],
    "samplers": [
        {
            "magFilter": 9729,
            "minFilter": 9987
        }
    ],
    "scenes": [
        {
            "nodes": [
                0
            ]
        }
    ],
    "textures": [
        {
            "source": 0,
            "sampler": 0
        },
        {
            "source": 1,
            "sampler": 0
        }
    ],
    "scene": 0
}